# xmcd
#
# Track frame offsets: 
#        150
#        20660
#        37158
#        56968
#        77067
#        93564
#
# Disc length: 1519 seconds
#
# Revision: 0
# Processed by: cddbd v1.5.2PL0 Copyright (c) Steve Scherf et al.
# Submitted via: ExactAudioCopy v0.99pb3
#
DISCID=4f05ed06
DTITLE=조관우 - 소나기
DYEAR=2008
DGENRE=Ballad
TTITLE0=날 버려요
TTITLE1=코스모스
TTITLE2=못난 사랑
TTITLE3=가슴은 알죠
TTITLE4=코스모스 (MR)
TTITLE5=날 버려요 (MR)
EXTD=
EXTT0=
EXTT1=
EXTT2=
EXTT3=
EXTT4=
EXTT5=
PLAYORDER=
